<svg xmlns="http://www.w3.org/2000/svg" xmlns:xlink="http://www.w3.org/1999/xlink" viewBox="0 0 50.48 58.22"><defs><style>.cls-1{fill:#def1fa;}.cls-2{fill:url(#linear-gradient);}.cls-3{fill:url(#linear-gradient-2);}.cls-4{fill:#b0c9d6;}.cls-5{fill:url(#linear-gradient-3);}.cls-6{fill:url(#linear-gradient-4);}.cls-7{fill:#99b1bd;}.cls-8{fill:url(#linear-gradient-5);}.cls-9{fill:url(#linear-gradient-6);}.cls-10{fill:url(#linear-gradient-7);}</style><linearGradient id="linear-gradient" y1="46.69" x2="50.48" y2="46.69" gradientUnits="userSpaceOnUse"><stop offset="0" stop-color="#fafdfe"/><stop offset="1" stop-color="#def1fa"/></linearGradient><linearGradient id="linear-gradient-2" y1="57.36" x2="50.48" y2="57.36" gradientUnits="userSpaceOnUse"><stop offset="0" stop-color="#b0c9d6"/><stop offset="1" stop-color="#99b1bd"/></linearGradient><linearGradient id="linear-gradient-3" x1="25.24" y1="47.64" x2="25.24" y2="56.63" gradientUnits="userSpaceOnUse"><stop offset="0" stop-color="#fafdfe"/><stop offset="0.26" stop-color="#dce8ee"/><stop offset="0.54" stop-color="#c4d7e1"/><stop offset="0.79" stop-color="#b5cdd9"/><stop offset="1" stop-color="#b0c9d6"/></linearGradient><linearGradient id="linear-gradient-4" x1="25.03" y1="1.71" x2="51.36" y2="43.3" gradientUnits="userSpaceOnUse"><stop offset="0" stop-color="#fafdfe"/><stop offset="0.5" stop-color="#b0c9d6"/><stop offset="1" stop-color="#99b1bd"/></linearGradient><linearGradient id="linear-gradient-5" x1="26.55" y1="3.33" x2="49.99" y2="41.92" gradientUnits="userSpaceOnUse"><stop offset="0" stop-color="#def1fa"/><stop offset="1" stop-color="#b0c9d6"/></linearGradient><linearGradient id="linear-gradient-6" x1="-0.78" y1="1.71" x2="25.55" y2="43.3" xlink:href="#linear-gradient-4"/><linearGradient id="linear-gradient-7" x1="0.74" y1="3.33" x2="24.18" y2="41.92" xlink:href="#linear-gradient-5"/></defs><g id="Layer_2" data-name="Layer 2"><g id="Artwork"><g id="Captain_Grade_2_" data-name="Captain (Grade 2)"><polygon class="cls-1" points="1.7 56.51 1.7 47.55 1.72 47.55 0 45.83 0 58.22 1.72 56.51 1.7 56.51"/><polygon class="cls-2" points="48.76 47.55 50.48 45.83 0 45.83 1.72 47.55 48.76 47.55"/><polygon class="cls-3" points="48.76 56.51 1.72 56.51 0 58.22 50.48 58.22 48.76 56.51"/><polygon class="cls-4" points="48.76 47.55 48.78 47.55 48.78 56.51 48.76 56.51 50.48 58.22 50.48 45.83 48.76 47.55"/><rect class="cls-5" x="1.7" y="47.55" width="47.08" height="8.96"/><path class="cls-6" d="M50.47,2a2.21,2.21,0,0,0-2.15-2H28a2.2,2.2,0,0,0-2.16,2.19V42.65A2.18,2.18,0,0,0,28,44.84H48.32a2.2,2.2,0,0,0,2.16-2.19V2.19s0-.1,0-.15M38.15,29.72l-5.32-7.3,5.32-7.31,5.32,7.31Z"/><polygon class="cls-1" points="38.15 29.72 38.15 26.93 41.44 22.42 43.47 22.42 38.15 29.72"/><polygon class="cls-4" points="43.47 22.42 41.44 22.42 38.15 17.9 38.15 15.11 43.47 22.42"/><polygon class="cls-7" points="38.15 15.11 38.15 17.9 34.86 22.42 32.83 22.42 38.15 15.11"/><polygon class="cls-4" points="32.83 22.42 34.86 22.42 38.15 26.93 38.15 29.72 32.83 22.42"/><path class="cls-8" d="M48.32,1.66a.53.53,0,0,1,.52.53V42.65a.52.52,0,0,1-.52.53H28a.53.53,0,0,1-.53-.53V2.19A.55.55,0,0,1,28,1.66ZM38.15,29.72l5.32-7.3-5.32-7.31-5.32,7.31,5.32,7.3"/><path class="cls-9" d="M24.66,2a2.22,2.22,0,0,0-2.15-2H2.16A2.2,2.2,0,0,0,0,2.19V42.65a2.17,2.17,0,0,0,2.15,2.19H22.51a2.19,2.19,0,0,0,2.15-2.19V2M12.34,29.72,7,22.42l5.33-7.31,5.32,7.31Z"/><polygon class="cls-1" points="12.34 29.72 12.34 26.93 15.63 22.42 17.66 22.42 12.34 29.72"/><polygon class="cls-4" points="17.66 22.42 15.63 22.42 12.34 17.9 12.34 15.11 17.66 22.42"/><polygon class="cls-7" points="12.34 15.11 12.34 17.9 9.05 22.42 7.01 22.42 12.34 15.11"/><polygon class="cls-4" points="7.01 22.42 9.05 22.42 12.34 26.93 12.34 29.72 7.01 22.42"/><path class="cls-10" d="M22.51,1.66a.54.54,0,0,1,.52.53V42.65a.53.53,0,0,1-.52.53H2.16a.53.53,0,0,1-.52-.53V2.19a.54.54,0,0,1,.52-.53ZM12.34,29.72l5.32-7.3-5.32-7.31L7,22.42l5.33,7.3"/></g></g></g></svg>