<svg xmlns="http://www.w3.org/2000/svg" xmlns:xlink="http://www.w3.org/1999/xlink" viewBox="0 0 50.48 69.89"><defs><style>.cls-1{fill:url(#linear-gradient);}.cls-2{fill:url(#linear-gradient-2);}.cls-3{fill:url(#linear-gradient-3);}.cls-4{fill:#fc0;}.cls-5{fill:url(#linear-gradient-4);}.cls-6{fill:url(#linear-gradient-5);}.cls-7{fill:url(#linear-gradient-6);}.cls-8{fill:url(#linear-gradient-7);}.cls-9{fill:url(#linear-gradient-8);}.cls-10{fill:url(#linear-gradient-9);}.cls-11{fill:url(#linear-gradient-10);}.cls-12{fill:url(#linear-gradient-11);}.cls-13{fill:url(#linear-gradient-12);}.cls-14{fill:url(#linear-gradient-13);}.cls-15{fill:#def1fa;}.cls-16{fill:#b0c9d6;}.cls-17{fill:#99b1bd;}.cls-18{fill:url(#linear-gradient-14);}.cls-19{fill:url(#linear-gradient-15);}.cls-20{fill:url(#linear-gradient-16);}</style><linearGradient id="linear-gradient" x1="0.86" y1="40.46" x2="0.86" y2="48.7" gradientUnits="userSpaceOnUse"><stop offset="0" stop-color="#fefae5"/><stop offset="1" stop-color="#fc0"/></linearGradient><linearGradient id="linear-gradient-2" x1="0.01" y1="40.89" x2="50.48" y2="40.89" xlink:href="#linear-gradient"/><linearGradient id="linear-gradient-3" x1="0.01" y1="48.17" x2="50.48" y2="48.17" gradientUnits="userSpaceOnUse"><stop offset="0" stop-color="#fc0"/><stop offset="1" stop-color="#e3b600"/></linearGradient><linearGradient id="linear-gradient-4" x1="25.25" y1="41.8" x2="25.25" y2="47.39" xlink:href="#linear-gradient"/><linearGradient id="linear-gradient-5" x1="0.86" y1="50.86" x2="0.86" y2="59.68" xlink:href="#linear-gradient"/><linearGradient id="linear-gradient-6" x1="0.01" y1="51.32" x2="50.48" y2="51.32" xlink:href="#linear-gradient"/><linearGradient id="linear-gradient-7" x1="0.01" y1="58.6" x2="50.48" y2="58.6" xlink:href="#linear-gradient-3"/><linearGradient id="linear-gradient-8" x1="25.25" y1="52.23" x2="25.25" y2="57.82" xlink:href="#linear-gradient"/><linearGradient id="linear-gradient-9" x1="0.86" y1="60.86" x2="0.86" y2="69.89" xlink:href="#linear-gradient"/><linearGradient id="linear-gradient-10" x1="0.01" y1="61.75" x2="50.48" y2="61.75" xlink:href="#linear-gradient"/><linearGradient id="linear-gradient-11" x1="0.01" y1="69.03" x2="50.48" y2="69.03" xlink:href="#linear-gradient-3"/><linearGradient id="linear-gradient-12" x1="25.25" y1="62.67" x2="25.25" y2="68.25" xlink:href="#linear-gradient"/><linearGradient id="linear-gradient-13" x1="26.42" y1="0.8" x2="49.94" y2="37.94" gradientUnits="userSpaceOnUse"><stop offset="0" stop-color="#fafdfe"/><stop offset="0.5" stop-color="#b0c9d6"/><stop offset="1" stop-color="#99b1bd"/></linearGradient><linearGradient id="linear-gradient-14" x1="27.88" y1="2.41" x2="48.61" y2="36.54" gradientUnits="userSpaceOnUse"><stop offset="0" stop-color="#def1fa"/><stop offset="1" stop-color="#b0c9d6"/></linearGradient><linearGradient id="linear-gradient-15" x1="0.61" y1="0.8" x2="24.13" y2="37.94" xlink:href="#linear-gradient-13"/><linearGradient id="linear-gradient-16" x1="2.07" y1="2.41" x2="22.8" y2="36.54" xlink:href="#linear-gradient-14"/></defs><g id="Layer_2" data-name="Layer 2"><g id="Artwork"><g id="Captain_Grade_4_Staff_Captain" data-name="Captain (Grade 4) – Staff Captain"><polygon class="cls-1" points="1.71 47.31 1.71 41.74 1.72 41.74 0.01 40.03 0.01 49.02 1.72 47.31 1.71 47.31"/><polygon class="cls-2" points="48.77 41.74 50.48 40.03 0.01 40.03 1.72 41.74 48.77 41.74"/><polygon class="cls-3" points="48.77 47.31 1.72 47.31 0.01 49.02 50.48 49.02 48.77 47.31"/><polygon class="cls-4" points="48.77 41.74 48.78 41.74 48.78 47.31 48.77 47.31 50.48 49.02 50.48 40.03 48.77 41.74"/><rect class="cls-5" x="1.71" y="41.75" width="47.08" height="5.57"/><polygon class="cls-6" points="1.71 57.74 1.71 52.17 1.72 52.17 0.01 50.46 0.01 59.46 1.72 57.74 1.71 57.74"/><polygon class="cls-7" points="48.77 52.17 50.48 50.46 0.01 50.46 1.72 52.17 48.77 52.17"/><polygon class="cls-8" points="48.77 57.74 1.72 57.74 0.01 59.46 50.48 59.46 48.77 57.74"/><polygon class="cls-4" points="48.77 52.17 48.78 52.17 48.78 57.74 48.77 57.74 50.48 59.46 50.48 50.46 48.77 52.17"/><rect class="cls-9" x="1.71" y="52.17" width="47.08" height="5.57"/><polygon class="cls-10" points="1.71 68.17 1.71 62.61 1.72 62.61 0.01 60.89 0.01 69.89 1.72 68.17 1.71 68.17"/><polygon class="cls-11" points="48.77 62.61 50.48 60.89 0.01 60.89 1.72 62.61 48.77 62.61"/><polygon class="cls-12" points="48.77 68.17 1.72 68.17 0.01 69.89 50.48 69.89 48.77 68.17"/><polygon class="cls-4" points="48.77 62.61 48.78 62.61 48.78 68.17 48.77 68.17 50.48 69.89 50.48 60.89 48.77 62.61"/><rect class="cls-13" x="1.71" y="62.61" width="47.08" height="5.57"/><path class="cls-14" d="M50.46,2a2.21,2.21,0,0,0-2.15-2H28a2.2,2.2,0,0,0-2.16,2.19V36.41A2.18,2.18,0,0,0,28,38.6H48.31a2.2,2.2,0,0,0,2.16-2.19V2.19a.76.76,0,0,0,0-.15M38.14,26.6l-5.32-7.3L38.14,12l5.32,7.31Z"/><polygon class="cls-15" points="38.14 26.6 38.14 23.81 41.43 19.3 43.46 19.3 38.14 26.6"/><polygon class="cls-16" points="43.46 19.3 41.43 19.3 38.14 14.78 38.14 11.99 43.46 19.3"/><polygon class="cls-17" points="38.14 11.99 38.14 14.78 34.85 19.3 32.82 19.3 38.14 11.99"/><polygon class="cls-16" points="32.82 19.3 34.85 19.3 38.14 23.81 38.14 26.6 32.82 19.3"/><path class="cls-18" d="M48.31,1.66a.52.52,0,0,1,.52.53V36.41a.53.53,0,0,1-.52.53H28a.53.53,0,0,1-.52-.53V2.19A.52.52,0,0,1,28,1.66ZM38.14,26.6l5.32-7.3L38.14,12,32.82,19.3l5.32,7.3"/><path class="cls-19" d="M24.65,2A2.21,2.21,0,0,0,22.5,0H2.16A2.2,2.2,0,0,0,0,2.19V36.41A2.18,2.18,0,0,0,2.16,38.6H22.5a2.2,2.2,0,0,0,2.16-2.19V2.19s0-.1,0-.15M12.33,26.6,7,19.3,12.33,12l5.32,7.31Z"/><polygon class="cls-15" points="12.33 26.6 12.33 23.81 15.62 19.3 17.65 19.3 12.33 26.6"/><polygon class="cls-16" points="17.65 19.3 15.62 19.3 12.33 14.78 12.33 11.99 17.65 19.3"/><polygon class="cls-17" points="12.33 11.99 12.33 14.78 9.04 19.3 7.01 19.3 12.33 11.99"/><polygon class="cls-16" points="7.01 19.3 9.04 19.3 12.33 23.81 12.33 26.6 7.01 19.3"/><path class="cls-20" d="M22.5,1.66a.52.52,0,0,1,.52.53V36.41a.53.53,0,0,1-.52.53H2.16a.55.55,0,0,1-.53-.53V2.19a.53.53,0,0,1,.53-.53ZM12.33,26.6l5.32-7.3L12.33,12,7,19.3l5.32,7.3"/></g></g></g></svg>