<svg xmlns="http://www.w3.org/2000/svg" xmlns:xlink="http://www.w3.org/1999/xlink" viewBox="0 0 50.48 64.62"><defs><style>.cls-1{fill:#def1fa;}.cls-2{fill:url(#linear-gradient);}.cls-3{fill:url(#linear-gradient-2);}.cls-4{fill:#b0c9d6;}.cls-5{fill:url(#linear-gradient-3);}.cls-6{fill:url(#linear-gradient-4);}.cls-7{fill:url(#linear-gradient-5);}.cls-8{fill:url(#linear-gradient-6);}.cls-9{fill:url(#linear-gradient-7);}.cls-10{fill:#99b1bd;}.cls-11{fill:url(#linear-gradient-8);}.cls-12{fill:url(#linear-gradient-9);}.cls-13{fill:url(#linear-gradient-10);}</style><linearGradient id="linear-gradient" y1="43.29" x2="50.48" y2="43.29" gradientUnits="userSpaceOnUse"><stop offset="0" stop-color="#fafdfe"/><stop offset="1" stop-color="#def1fa"/></linearGradient><linearGradient id="linear-gradient-2" y1="52.16" x2="50.48" y2="52.16" gradientUnits="userSpaceOnUse"><stop offset="0" stop-color="#b0c9d6"/><stop offset="1" stop-color="#99b1bd"/></linearGradient><linearGradient id="linear-gradient-3" x1="25.24" y1="44.23" x2="25.24" y2="51.4" gradientUnits="userSpaceOnUse"><stop offset="0" stop-color="#fafdfe"/><stop offset="0.26" stop-color="#dce8ee"/><stop offset="0.54" stop-color="#c4d7e1"/><stop offset="0.79" stop-color="#b5cdd9"/><stop offset="1" stop-color="#b0c9d6"/></linearGradient><linearGradient id="linear-gradient-4" y1="54.9" x2="50.48" y2="54.9" xlink:href="#linear-gradient"/><linearGradient id="linear-gradient-5" y1="63.76" x2="50.48" y2="63.76" xlink:href="#linear-gradient-2"/><linearGradient id="linear-gradient-6" x1="25.24" y1="55.83" x2="25.24" y2="63" xlink:href="#linear-gradient-3"/><linearGradient id="linear-gradient-7" x1="25.8" y1="1.21" x2="50.58" y2="40.35" gradientUnits="userSpaceOnUse"><stop offset="0" stop-color="#fafdfe"/><stop offset="0.5" stop-color="#b0c9d6"/><stop offset="1" stop-color="#99b1bd"/></linearGradient><linearGradient id="linear-gradient-8" x1="27.29" y1="2.82" x2="49.24" y2="38.96" gradientUnits="userSpaceOnUse"><stop offset="0" stop-color="#def1fa"/><stop offset="1" stop-color="#b0c9d6"/></linearGradient><linearGradient id="linear-gradient-9" x1="-0.01" y1="1.21" x2="24.77" y2="40.35" xlink:href="#linear-gradient-7"/><linearGradient id="linear-gradient-10" x1="1.47" y1="2.82" x2="23.42" y2="38.96" xlink:href="#linear-gradient-8"/></defs><g id="Layer_2" data-name="Layer 2"><g id="Artwork"><g id="Captain_Grade_3_" data-name="Captain (Grade 3)"><polygon class="cls-1" points="1.7 51.3 1.7 44.15 1.72 44.15 0 42.44 0 53.01 1.72 51.3 1.7 51.3"/><polygon class="cls-2" points="48.76 44.15 50.48 42.44 0 42.44 1.72 44.15 48.76 44.15"/><polygon class="cls-3" points="48.76 51.3 1.72 51.3 0 53.01 50.48 53.01 48.76 51.3"/><polygon class="cls-4" points="48.76 44.15 48.78 44.15 48.78 51.3 48.76 51.3 50.48 53.01 50.48 42.44 48.76 44.15"/><rect class="cls-5" x="1.7" y="44.15" width="47.08" height="7.15"/><polygon class="cls-1" points="1.7 62.9 1.7 55.76 1.72 55.76 0 54.04 0 64.62 1.72 62.9 1.7 62.9"/><polygon class="cls-6" points="48.76 55.76 50.48 54.04 0 54.04 1.72 55.76 48.76 55.76"/><polygon class="cls-7" points="48.76 62.9 1.72 62.9 0 64.62 50.48 64.62 48.76 62.9"/><polygon class="cls-4" points="48.76 55.76 48.78 55.76 48.78 62.9 48.76 62.9 50.48 64.62 50.48 54.04 48.76 55.76"/><rect class="cls-8" x="1.7" y="55.76" width="47.08" height="7.15"/><path class="cls-9" d="M50.47,2a2.21,2.21,0,0,0-2.15-2H28a2.2,2.2,0,0,0-2.16,2.19v37A2.18,2.18,0,0,0,28,41.41H48.32a2.2,2.2,0,0,0,2.16-2.19v-37s0-.1,0-.15M38.15,28l-5.32-7.3,5.32-7.31,5.32,7.31Z"/><polygon class="cls-1" points="38.15 28.02 38.15 25.23 41.44 20.71 43.47 20.72 38.15 28.02"/><polygon class="cls-4" points="43.47 20.72 41.44 20.71 38.15 16.2 38.15 13.41 43.47 20.72"/><polygon class="cls-10" points="38.15 13.41 38.15 16.2 34.86 20.71 32.83 20.72 38.15 13.41"/><polygon class="cls-4" points="32.83 20.72 34.86 20.71 38.15 25.23 38.15 28.02 32.83 20.72"/><path class="cls-11" d="M48.32,1.66a.53.53,0,0,1,.52.53v37a.53.53,0,0,1-.52.53H28a.53.53,0,0,1-.52-.53v-37A.53.53,0,0,1,28,1.66ZM38.15,28l5.32-7.3-5.32-7.31-5.32,7.31L38.15,28"/><path class="cls-12" d="M24.66,2a2.21,2.21,0,0,0-2.15-2H2.17A2.2,2.2,0,0,0,0,2.19v37a2.18,2.18,0,0,0,2.16,2.19H22.51a2.19,2.19,0,0,0,2.15-2.19V2M12.34,28,7,20.72l5.33-7.31,5.32,7.31Z"/><polygon class="cls-1" points="12.34 28.02 12.34 25.23 15.63 20.71 17.66 20.72 12.34 28.02"/><polygon class="cls-4" points="17.66 20.72 15.63 20.71 12.34 16.2 12.34 13.41 17.66 20.72"/><polygon class="cls-10" points="12.34 13.41 12.34 16.2 9.05 20.71 7.01 20.72 12.34 13.41"/><polygon class="cls-4" points="7.01 20.72 9.05 20.71 12.34 25.23 12.34 28.02 7.01 20.72"/><path class="cls-13" d="M22.51,1.66a.54.54,0,0,1,.52.53v37a.54.54,0,0,1-.52.53H2.17a.54.54,0,0,1-.53-.53v-37a.54.54,0,0,1,.53-.53ZM12.34,28l5.32-7.3-5.32-7.31L7,20.72,12.34,28"/></g></g></g></svg>